<svg width="50" height="50" viewBox="0 0 50 50" fill="none" xmlns="http://www.w3.org/2000/svg">
<path d="M40.646 38.7549H9.35498L11.3853 35.9307H38.6157L40.646 38.7549Z" fill="#001A31"/>
<path fill-rule="evenodd" clip-rule="evenodd" d="M39.0942 15.835V19.5381C38.5032 19.5565 37.9113 19.5735 37.3149 19.5957C36.3065 19.6333 35.5142 20.4028 35.5142 21.3975L35.5132 33.6172H32.8081C32.8081 29.512 32.8081 25.4069 32.8081 21.3017C32.8079 20.3607 32.0381 19.5959 31.0972 19.5957C30.1561 19.5957 29.3933 20.3588 29.3931 21.2998L29.3921 33.6172H26.6919L26.6909 21.3055C26.6909 20.3645 25.9258 19.5958 24.9849 19.5957C24.0439 19.5957 23.271 20.3645 23.271 21.3055C23.271 25.4094 23.271 29.5133 23.271 33.6172H20.5675C20.5675 29.5191 20.5698 25.3908 20.5698 21.2927C20.5698 20.3572 19.8012 19.5957 18.8657 19.5957C17.9304 19.5959 17.1724 20.3547 17.1724 21.2901C17.1724 21.2901 17.1724 29.508 17.1724 33.6172H14.4614C14.4614 33.6172 14.4614 25.3991 14.4614 21.2901C14.4614 20.357 13.7022 19.5996 12.77 19.5957V19.5928L10.8979 19.5547V15.835L24.9907 10.3545L24.9976 10.3535L39.0942 15.835ZM13.8101 17.2159H35.9478L24.9976 13.3758L13.8101 17.2159Z" fill="#001A31"/>
<path fill-rule="evenodd" clip-rule="evenodd" d="M43.4101 0.00196479L43.415 0.000982395L43.752 0.0186655C47.1378 0.273636 49.828 3.01846 49.9931 6.42388L50.001 6.75593V43.2431L49.999 43.414C49.9079 47.0064 47.0074 49.9029 43.4101 49.9941L43.2362 49.9961L6.76281 50L6.58991 49.999C3.21385 49.9133 0.452211 47.3577 0.0501022 44.0742L0.0186655 43.7549L0.00294719 43.4278L0.000982395 43.4032L0 43.246V6.76183C0.000218208 3.09311 2.92889 0.107151 6.5791 0.00884156L6.6125 0.00785916L6.61447 0.00589437L6.76379 0.00491198L6.76281 0.00392958L43.2362 0L43.4101 0.00196479ZM43.6527 2.63871C45.745 2.84753 47.3787 4.61132 47.379 6.75593V43.2441L47.3741 43.4494V43.4543C47.2659 45.5718 45.5635 47.2689 43.4425 47.3731H43.4396L43.2401 47.378L6.76478 47.3839C4.54849 47.3836 2.73794 45.6444 2.62693 43.4582L2.62201 43.245V6.76281L2.62693 6.5516V6.54767L2.64264 6.34431C2.85212 4.25513 4.618 2.62425 6.76478 2.62398L43.2382 2.61808L43.4445 2.623H43.4494L43.6527 2.63871Z" fill="#2F55D9"/>
</svg>
