<svg width="46" height="47" viewBox="0 0 46 47" fill="none" xmlns="http://www.w3.org/2000/svg">
<rect width="46" height="46.2584" rx="9.04494" fill="url(#paint0_linear_40000103_4226)"/>
<g filter="url(#filter0_d_40000103_4226)">
<rect x="14.8223" y="3.05859" width="30.612" height="30.612" rx="4.44368" transform="rotate(23 14.8223 3.05859)" fill="#E5E7EB"/>
<rect x="7.87187" y="8.06718" width="30.1183" height="30.1183" rx="4.19681" fill="white"/>
<rect x="7.87187" y="8.06718" width="30.1183" height="30.1183" rx="4.19681" stroke="#D1D5DB" stroke-width="0.493743"/>
<g clip-path="url(#clip0_40000103_4226)">
<path d="M26.0722 25.2812L22.93 28.4233L19.7879 25.2812C18.0525 23.5458 18.0525 20.7322 19.7879 18.9968C21.5232 17.2615 24.3368 17.2615 26.0722 18.9968C27.8075 20.7322 27.8075 23.5458 26.0722 25.2812ZM22.93 23.1265C23.4754 23.1265 23.9175 22.6844 23.9175 22.139C23.9175 21.5936 23.4754 21.1515 22.93 21.1515C22.3846 21.1515 21.9425 21.5936 21.9425 22.139C21.9425 22.6844 22.3846 23.1265 22.93 23.1265Z" fill="#374151"/>
</g>
<circle cx="32.9796" cy="12.9328" r="2.46871" fill="#B3EFD3" stroke="#10B981" stroke-width="1.97497"/>
</g>
<path d="M43 23.2928L43.1 23.0597C43.0917 23.0804 43.0835 23.099 43.077 23.1197C43.0499 23.1773 43.0251 23.2352 43 23.2928ZM43.1395 22.969C43.1331 22.983 43.1276 22.9974 43.123 23.0122C43.1145 23.0287 43.1065 23.0432 43.1 23.0597C43.1124 23.029 43.1254 22.9989 43.1395 22.969Z" fill="#1C0F38"/>
<defs>
<filter id="filter0_d_40000103_4226" x="2.86133" y="3.05859" width="40.1387" height="41.1406" filterUnits="userSpaceOnUse" color-interpolation-filters="sRGB">
<feFlood flood-opacity="0" result="BackgroundImageFix"/>
<feColorMatrix in="SourceAlpha" type="matrix" values="0 0 0 0 0 0 0 0 0 0 0 0 0 0 0 0 0 0 127 0" result="hardAlpha"/>
<feOffset dy="1"/>
<feComposite in2="hardAlpha" operator="out"/>
<feColorMatrix type="matrix" values="0 0 0 0 0 0 0 0 0 0 0 0 0 0 0 0 0 0 0.15 0"/>
<feBlend mode="normal" in2="BackgroundImageFix" result="effect1_dropShadow_40000103_4226"/>
<feBlend mode="normal" in="SourceGraphic" in2="effect1_dropShadow_40000103_4226" result="shape"/>
</filter>
<linearGradient id="paint0_linear_40000103_4226" x1="23" y1="-0.129213" x2="23" y2="46.3876" gradientUnits="userSpaceOnUse">
<stop offset="0.315" stop-color="white"/>
<stop offset="1" stop-color="#B3EFD3"/>
</linearGradient>
<clipPath id="clip0_40000103_4226">
<rect width="11.8498" height="10.728" fill="white" transform="translate(17.0059 17.6953)"/>
</clipPath>
</defs>
</svg>
