<svg width="120" height="75" viewBox="0 0 120 75" fill="none" xmlns="http://www.w3.org/2000/svg">
<path d="M110.836 31.3396C107.081 32.1544 103.918 32.9241 100.726 33.511C95.3162 34.5286 89.9283 35.2928 84.4172 33.965C78.8272 32.6123 75.1911 29.1845 74.093 23.6626C73.4241 20.2712 73.6772 16.7069 73.6437 13.226C73.6378 11.8649 74.0155 10.4799 74.3037 8.45934C71.9634 10.3841 70.1487 11.9247 68.2716 13.3879C63.7 16.9825 59.2713 20.7667 54.4846 24.0335C47.948 28.5432 41.9219 27.198 37.6183 20.4659C35.9327 17.8248 34.8765 14.7454 33.5616 11.8449C33.1714 10.9703 32.9113 10.0499 32.5265 8.97451C29.7286 13.7342 27.1369 18.2984 24.3857 22.7257C17.9575 33.0533 9.08083 29.8287 4.23287 22.8965C2.93592 21.0427 2.06913 18.8326 1.20384 16.7097C0.673104 15.2704 0.960523 13.7123 2.55626 13.144C3.99559 12.6133 5.00763 13.6255 5.70984 14.8874C6.42032 16.123 7.05334 17.4209 7.88414 18.5497C8.85781 19.868 9.85778 21.1946 11.0721 22.2994C14.4932 25.3994 17.4756 25.2959 20.3981 21.7033C22.4663 19.1724 24.1713 16.3249 25.8861 13.5383C27.482 10.9456 28.9629 8.25901 30.4439 5.57238C31.2231 4.19786 32.0549 2.8399 33.8175 2.84459C35.8418 2.84481 36.5417 4.48192 37.1958 5.98894C38.04 7.90279 38.5895 9.9264 39.5375 11.7861C40.7036 14.1482 41.9305 16.5005 43.4327 18.6212C45.4801 21.4917 47.4607 21.9987 50.5823 20.3485C53.5655 18.7704 56.5277 16.9833 59.2238 14.939C64.9768 10.53 70.5524 5.94962 76.1362 1.3429C77.4613 0.255688 78.733 -0.385603 80.2917 0.451507C81.7798 1.23747 81.8744 2.68427 81.6298 4.19796C81.1874 6.89297 80.6231 9.60752 80.3205 12.3176C80.0646 14.6953 79.8448 17.1422 80.025 19.5124C80.4913 25.8478 83.4026 28.7297 89.6732 29.5733C94.3872 30.2167 99.0766 29.927 103.721 29.0446C107.069 28.4201 110.371 27.5782 113.673 26.8236C115.42 26.4185 117.228 26.0036 118.454 27.8062C119.592 29.5231 118.783 31.1773 117.911 32.7541C117.53 33.415 117.051 34.0166 116.599 34.6264C115.669 35.8377 114.801 37.1265 113.756 38.2438C106.037 46.6041 106.734 55.7015 111.458 65.0528C112.334 66.7741 113.755 68.2331 114.976 69.774C115.574 70.5403 116.422 71.154 116.916 71.9745C117.284 72.5528 117.572 73.5687 117.283 74.0274C116.978 74.5387 115.97 74.8003 115.335 74.8897C113.95 75.0618 112.368 74.3908 111.359 73.553C109.367 71.8857 107.407 70.0259 106 67.8773C102.865 63.1321 101.351 57.7395 100.791 52.0689C100.315 47.2344 101.918 42.9664 104.661 39.1151C106.486 36.6233 108.488 34.3029 110.836 31.3396Z" fill="#374151"/>
</svg>
