<svg width="230" height="28" viewBox="0 0 230 28" fill="none" xmlns="http://www.w3.org/2000/svg">
<path fill-rule="evenodd" clip-rule="evenodd" d="M108.481 0.0748074C108.41 0.192338 104.468 0.498969 99.7193 0.756355C87.593 1.41295 84.8085 1.62306 81.3957 2.13914C79.7484 2.38799 77.8456 2.67164 77.1672 2.76947C72.8383 3.39258 70.4731 3.78983 69.2388 4.10237C68.4635 4.29803 66.9571 4.60072 65.8912 4.77406C64.8253 4.9474 63.1807 5.22055 62.2367 5.38141C61.2927 5.54162 60.3159 5.98942 60.0657 6.37616C59.7486 6.86663 59.5417 6.87057 59.3821 6.38863C59.256 6.00846 58.806 5.85942 58.3817 6.05705C57.9574 6.25469 57.2139 6.51141 56.7294 6.62763C56.2449 6.74319 54.8178 7.08594 53.558 7.38797C52.2983 7.69 51.1386 7.87122 50.9808 7.79046C50.8229 7.71036 50.1093 7.92178 49.3951 8.26124C48.6808 8.60005 47.0271 9.03077 45.7205 9.2179C44.4142 9.40503 43.208 9.7156 43.0403 9.90864C42.7228 10.2744 41.9028 10.495 36.7486 11.6C31.8711 12.6466 30.9129 12.9139 29.5965 13.5935C28.9181 13.9441 27.6485 14.2323 26.775 14.2343C25.9018 14.2363 24.6333 14.558 23.956 14.9487C22.6166 15.7221 18.6055 16.7622 15.4496 17.1548C14.3555 17.2907 13.1662 17.6768 12.8068 18.0123C12.4477 18.3479 11.4516 18.6854 10.5935 18.7622C9.7355 18.8383 8.87394 19.0846 8.67943 19.3091C8.32248 19.7201 6.72974 20.164 5.49466 20.1968C4.66235 20.2192 2.8159 21.9545 2.8159 22.7142C2.8159 24.4036 5.99503 24.531 7.48135 22.9007C8.21535 22.0957 8.54518 22.0248 8.85668 22.6052C9.16395 23.1778 9.45184 23.1824 10.0054 22.6256C10.4117 22.2165 11.2662 21.9447 11.9037 22.0222C12.5415 22.099 13.255 21.9362 13.4894 21.6604C13.724 21.3846 14.7086 21.0865 15.6776 20.9992C18.4258 20.751 28.3529 18.753 31.3583 17.8436C32.9289 17.3682 34.4046 16.9808 35.8335 16.6689C36.4537 16.5337 37.2071 16.0432 37.5073 15.5783C37.9125 14.9519 38.1758 14.9231 38.5264 15.4654C38.7864 15.8672 39.111 15.9887 39.2473 15.7346C39.3834 15.4805 40.241 15.2047 41.1526 15.122C42.0646 15.0393 44.0791 14.663 45.6296 14.2862C47.18 13.9099 49.2414 13.4457 50.2105 13.2553C51.1795 13.0649 53.0823 12.6132 54.439 12.2514C56.8735 11.602 59.2711 11.1096 62.3674 10.6243C66.2482 10.015 67.3818 9.67752 67.8205 8.99926C68.1661 8.46413 68.3272 8.48514 68.4336 9.08001C68.5467 9.71363 69.3646 9.6959 72.2558 8.9986C74.2788 8.51075 76.5682 8.17326 77.3434 8.24876C78.1186 8.32362 80.5765 8.08724 82.8052 7.72283C87.4957 6.95527 96.8094 6.34858 108.353 6.05836C112.81 5.94608 116.536 5.78522 116.633 5.70052C116.73 5.61648 116.968 5.64011 117.162 5.7537C117.356 5.8673 120.448 6.00452 124.033 6.05836C132.505 6.18574 149.183 7.41161 150.814 8.02618C151.83 8.40963 155.892 8.87778 161.837 9.298C164.121 9.45953 166.152 9.77863 166.35 10.0071C166.549 10.2363 168.328 10.5482 170.303 10.7011C172.278 10.8541 174.37 11.2487 174.952 11.579C176.281 12.3334 177.897 12.2927 178.161 11.4976C178.282 11.1319 178.524 11.1286 178.771 11.4904C178.996 11.82 179.418 12.1352 179.709 12.1916C181.24 12.4877 182.819 12.8876 183.761 13.2166C185.904 13.9664 186.684 14.1588 191.689 15.1713C197.399 16.3262 197.376 16.3196 199.089 17.3485C199.768 17.7556 201.115 18.2343 202.085 18.4122C204.592 18.8725 208.223 20.0084 209.623 20.7714C210.28 21.1299 210.943 21.2789 211.096 21.1029C211.249 20.927 211.473 21.0832 211.595 21.4503C211.717 21.8173 212.504 22.1174 213.344 22.1174C214.184 22.1174 215.899 22.7083 217.155 23.4312C219.683 24.8862 220.828 25.1482 221.684 24.4667C222.034 24.1876 222.329 24.3721 222.447 24.9421C222.558 25.4811 223.386 26.0576 224.416 26.3124C225.393 26.554 226.289 27.0386 226.405 27.3892C226.667 28.1797 229.044 28.2119 229.703 27.4332C230.326 26.6984 229.904 25.4004 229.041 25.4004C228.677 25.4004 228.289 25.1305 228.179 24.8009C228.07 24.4713 227.314 23.9913 226.498 23.7346C225.683 23.4785 224.772 23.0222 224.474 22.7214C223.785 22.0268 216.609 18.3308 213.713 17.1791C213.325 17.0248 210.788 16.0025 208.075 14.9066C204.051 13.2822 194.754 10.3203 190.632 9.34988C190.148 9.23563 189.513 8.99137 189.223 8.80621C188.932 8.62171 187.029 8.11679 184.994 7.68475C182.959 7.25205 180.739 6.76289 180.061 6.59677C179.383 6.43065 177.876 6.17261 176.713 6.02291C175.551 5.8732 171.666 5.15489 168.08 4.42803C161.096 3.0111 146.795 1.34795 136.659 0.774083C128.213 0.296082 108.64 -0.189801 108.481 0.0748074ZM0.419738 22.9053C-0.320956 24.2855 -0.0556149 25.4004 1.01279 25.4004C1.81691 25.4004 2.06428 25.0576 2.19748 23.7589C2.3349 22.4174 2.22672 22.1174 1.60407 22.1174C1.18545 22.1174 0.652306 22.4719 0.419738 22.9053Z" fill="#374151"/>
</svg>
